<?xml version="1.0" standalone="no"?>
<!DOCTYPE svg PUBLIC "-//W3C//DTD SVG 20010904//EN"
 "http://www.w3.org/TR/2001/REC-SVG-20010904/DTD/svg10.dtd">
<svg version="1.0" xmlns="http://www.w3.org/2000/svg"
 width="572.000000pt" height="436.000000pt" viewBox="0 0 572.000000 436.000000"
 preserveAspectRatio="xMidYMid meet">

<g transform="translate(0.000000,436.000000) scale(0.100000,-0.100000)"
fill="#000000" stroke="none">
<path d="M3482 2688 c2 -22 9 -34 21 -36 15 -3 18 2 15 30 -2 22 -9 34 -21 36
-15 3 -18 -2 -15 -30z"/>
<path d="M3493 2293 c-7 -2 -13 -21 -13 -40 0 -28 3 -34 16 -29 9 3 18 6 20 6
2 0 4 16 4 35 0 35 -3 38 -27 28z"/>
<path d="M2676 1815 c-10 -27 -7 -35 15 -35 15 0 20 5 17 22 -4 27 -23 35 -32
13z"/>
</g>
</svg>
